<svg xmlns="http://www.w3.org/2000/svg" width="18" height="12"><g fill="#FFF" fill-rule="evenodd"><path d="M8.899 0a1.71 1.71 0 0 0-1.612 1.14L.552 1.135A.55.55 0 0 0 0 1.684a.55.55 0 0 0 .55.547l6.725.002a1.711 1.711 0 0 0 3.34-.527A1.71 1.71 0 0 0 8.898 0"/><path d="M16.887 10.11A1.944 1.944 0 0 1 14.94 12H3.313a1.943 1.943 0 0 1-1.946-1.89L.298 3.61c.083.016.166.025.252.025h5.69c.44.72 1.191 1.548 2.78 1.55 1.874-.002 2.712-1.947 2.882-3.14h5.541a.56.56 0 0 1 .421.193.552.552 0 0 1 .13.442l-1.108 7.428z"/></g></svg>